<mxfile host="app.diagrams.net" modified="2023-07-01T08:10:39.915Z" agent="Mozilla/5.0 (Windows NT 10.0; Win64; x64) AppleWebKit/537.36 (KHTML, like Gecko) Chrome/114.0.0.0 Safari/537.36 Edg/114.0.1823.58" etag="1hZFWIHgkm0clEndQMSx" version="21.5.2" type="github">
  <diagram name="Page-1" id="nOfw0yhy7YK9u9o8exiN">
    <mxGraphModel dx="969" dy="633" grid="1" gridSize="10" guides="1" tooltips="1" connect="1" arrows="1" fold="1" page="1" pageScale="1" pageWidth="850" pageHeight="1100" math="0" shadow="0">
      <root>
        <mxCell id="0" />
        <mxCell id="1" parent="0" />
        <mxCell id="WEkyy8aIlfb2HkUplC9--1" value="GPU OPTIMIZATION TECHNIQUES" style="rounded=0;whiteSpace=wrap;html=1;" vertex="1" parent="1">
          <mxGeometry x="120" y="481.5" width="120" height="60" as="geometry" />
        </mxCell>
        <mxCell id="WEkyy8aIlfb2HkUplC9--2" value="Memory Access" style="rounded=0;whiteSpace=wrap;html=1;" vertex="1" parent="1">
          <mxGeometry x="280" y="145" width="120" height="40" as="geometry" />
        </mxCell>
        <mxCell id="WEkyy8aIlfb2HkUplC9--3" value="Irregularity" style="rounded=0;whiteSpace=wrap;html=1;" vertex="1" parent="1">
          <mxGeometry x="274" y="370" width="120" height="40" as="geometry" />
        </mxCell>
        <mxCell id="WEkyy8aIlfb2HkUplC9--4" value="On-Chip" style="rounded=0;whiteSpace=wrap;html=1;" vertex="1" parent="1">
          <mxGeometry x="426" y="80" width="120" height="40" as="geometry" />
        </mxCell>
        <mxCell id="WEkyy8aIlfb2HkUplC9--5" value="Off-Chip" style="rounded=0;whiteSpace=wrap;html=1;" vertex="1" parent="1">
          <mxGeometry x="427" y="210" width="120" height="40" as="geometry" />
        </mxCell>
        <mxCell id="WEkyy8aIlfb2HkUplC9--6" value="&amp;nbsp;Use Dedicated Memories" style="rounded=0;whiteSpace=wrap;html=1;" vertex="1" parent="1">
          <mxGeometry x="567" y="39" width="120" height="37" as="geometry" />
        </mxCell>
        <mxCell id="WEkyy8aIlfb2HkUplC9--7" value="Use Warp Functions" style="rounded=0;whiteSpace=wrap;html=1;" vertex="1" parent="1">
          <mxGeometry x="567" y="82" width="120" height="37" as="geometry" />
        </mxCell>
        <mxCell id="WEkyy8aIlfb2HkUplC9--8" value="&amp;nbsp;Register Blocking" style="rounded=0;whiteSpace=wrap;html=1;" vertex="1" parent="1">
          <mxGeometry x="567" y="125" width="120" height="37" as="geometry" />
        </mxCell>
        <mxCell id="WEkyy8aIlfb2HkUplC9--9" value="Reduce Register Usage" style="rounded=0;whiteSpace=wrap;html=1;" vertex="1" parent="1">
          <mxGeometry x="697" y="39" width="120" height="37" as="geometry" />
        </mxCell>
        <mxCell id="WEkyy8aIlfb2HkUplC9--11" value="Recompute" style="rounded=0;whiteSpace=wrap;html=1;" vertex="1" parent="1">
          <mxGeometry x="697" y="125" width="120" height="37" as="geometry" />
        </mxCell>
        <mxCell id="WEkyy8aIlfb2HkUplC9--12" value="" style="shape=curlyBracket;whiteSpace=wrap;html=1;rounded=1;labelPosition=left;verticalLabelPosition=middle;align=right;verticalAlign=middle;" vertex="1" parent="1">
          <mxGeometry x="547" y="60" width="20" height="80" as="geometry" />
        </mxCell>
        <mxCell id="WEkyy8aIlfb2HkUplC9--13" value="Coalesced Access" style="rounded=0;whiteSpace=wrap;html=1;" vertex="1" parent="1">
          <mxGeometry x="567" y="170" width="120" height="37" as="geometry" />
        </mxCell>
        <mxCell id="WEkyy8aIlfb2HkUplC9--14" value="Loop Tiling or Spatial Blocking" style="rounded=0;whiteSpace=wrap;html=1;" vertex="1" parent="1">
          <mxGeometry x="567" y="213" width="120" height="37" as="geometry" />
        </mxCell>
        <mxCell id="WEkyy8aIlfb2HkUplC9--15" value="Kernel Fusion" style="rounded=0;whiteSpace=wrap;html=1;" vertex="1" parent="1">
          <mxGeometry x="567" y="256" width="120" height="37" as="geometry" />
        </mxCell>
        <mxCell id="WEkyy8aIlfb2HkUplC9--16" value=" Software Prefetching" style="rounded=0;whiteSpace=wrap;html=1;" vertex="1" parent="1">
          <mxGeometry x="696" y="170" width="120" height="37" as="geometry" />
        </mxCell>
        <mxCell id="WEkyy8aIlfb2HkUplC9--17" value=" Compress Data" style="rounded=0;whiteSpace=wrap;html=1;" vertex="1" parent="1">
          <mxGeometry x="696" y="213" width="120" height="37" as="geometry" />
        </mxCell>
        <mxCell id="WEkyy8aIlfb2HkUplC9--18" value=" Precompute" style="rounded=0;whiteSpace=wrap;html=1;" vertex="1" parent="1">
          <mxGeometry x="696" y="256" width="120" height="37" as="geometry" />
        </mxCell>
        <mxCell id="WEkyy8aIlfb2HkUplC9--19" value="" style="shape=curlyBracket;whiteSpace=wrap;html=1;rounded=1;labelPosition=left;verticalLabelPosition=middle;align=right;verticalAlign=middle;" vertex="1" parent="1">
          <mxGeometry x="547" y="190" width="20" height="90" as="geometry" />
        </mxCell>
        <mxCell id="WEkyy8aIlfb2HkUplC9--20" value="" style="shape=curlyBracket;whiteSpace=wrap;html=1;rounded=1;labelPosition=left;verticalLabelPosition=middle;align=right;verticalAlign=middle;" vertex="1" parent="1">
          <mxGeometry x="405" y="100" width="20" height="130" as="geometry" />
        </mxCell>
        <mxCell id="WEkyy8aIlfb2HkUplC9--21" value="Loop Unrolling" style="rounded=0;whiteSpace=wrap;html=1;" vertex="1" parent="1">
          <mxGeometry x="427" y="315" width="120" height="40" as="geometry" />
        </mxCell>
        <mxCell id="WEkyy8aIlfb2HkUplC9--22" value="Reduce Branch-Divergence" style="rounded=0;whiteSpace=wrap;html=1;" vertex="1" parent="1">
          <mxGeometry x="427" y="365" width="120" height="40" as="geometry" />
        </mxCell>
        <mxCell id="WEkyy8aIlfb2HkUplC9--23" value="&amp;nbsp;Sparse Matrix Format" style="rounded=0;whiteSpace=wrap;html=1;" vertex="1" parent="1">
          <mxGeometry x="427" y="415" width="120" height="40" as="geometry" />
        </mxCell>
        <mxCell id="WEkyy8aIlfb2HkUplC9--24" value="Kernel Fission" style="rounded=0;whiteSpace=wrap;html=1;" vertex="1" parent="1">
          <mxGeometry x="560" y="315" width="120" height="40" as="geometry" />
        </mxCell>
        <mxCell id="WEkyy8aIlfb2HkUplC9--25" value=" Synchronization-related Balancing â€” Reduce Redundant Work" style="rounded=0;whiteSpace=wrap;html=1;" vertex="1" parent="1">
          <mxGeometry x="560" y="365" width="120" height="90" as="geometry" />
        </mxCell>
        <mxCell id="WEkyy8aIlfb2HkUplC9--26" value="" style="shape=curlyBracket;whiteSpace=wrap;html=1;rounded=1;labelPosition=left;verticalLabelPosition=middle;align=right;verticalAlign=middle;" vertex="1" parent="1">
          <mxGeometry x="400" y="330" width="20" height="120" as="geometry" />
        </mxCell>
        <mxCell id="WEkyy8aIlfb2HkUplC9--27" value="Balancing" style="rounded=0;whiteSpace=wrap;html=1;" vertex="1" parent="1">
          <mxGeometry x="274" y="612" width="120" height="40" as="geometry" />
        </mxCell>
        <mxCell id="WEkyy8aIlfb2HkUplC9--28" value="Balancing the Instruction Stream" style="rounded=0;whiteSpace=wrap;html=1;" vertex="1" parent="1">
          <mxGeometry x="427" y="515" width="120" height="40" as="geometry" />
        </mxCell>
        <mxCell id="WEkyy8aIlfb2HkUplC9--30" value="Vectorization" style="rounded=0;whiteSpace=wrap;html=1;" vertex="1" parent="1">
          <mxGeometry x="564" y="484" width="120" height="40" as="geometry" />
        </mxCell>
        <mxCell id="WEkyy8aIlfb2HkUplC9--31" value="&amp;nbsp;Fast Math Functions" style="rounded=0;whiteSpace=wrap;html=1;" vertex="1" parent="1">
          <mxGeometry x="564" y="530" width="120" height="40" as="geometry" />
        </mxCell>
        <mxCell id="WEkyy8aIlfb2HkUplC9--32" value="Warp-Centric Programming" style="rounded=0;whiteSpace=wrap;html=1;" vertex="1" parent="1">
          <mxGeometry x="696" y="484" width="120" height="40" as="geometry" />
        </mxCell>
        <mxCell id="WEkyy8aIlfb2HkUplC9--33" value="Parallelism-related Balancing" style="rounded=0;whiteSpace=wrap;html=1;" vertex="1" parent="1">
          <mxGeometry x="427" y="622" width="120" height="40" as="geometry" />
        </mxCell>
        <mxCell id="WEkyy8aIlfb2HkUplC9--34" value="Varying Work per Thread" style="rounded=0;whiteSpace=wrap;html=1;" vertex="1" parent="1">
          <mxGeometry x="567" y="590" width="120" height="40" as="geometry" />
        </mxCell>
        <mxCell id="WEkyy8aIlfb2HkUplC9--35" value="Resize Thread Blocks" style="rounded=0;whiteSpace=wrap;html=1;" vertex="1" parent="1">
          <mxGeometry x="567" y="640" width="120" height="40" as="geometry" />
        </mxCell>
        <mxCell id="WEkyy8aIlfb2HkUplC9--36" value="Auto-tuning." style="rounded=0;whiteSpace=wrap;html=1;" vertex="1" parent="1">
          <mxGeometry x="696" y="590" width="120" height="40" as="geometry" />
        </mxCell>
        <mxCell id="WEkyy8aIlfb2HkUplC9--37" value="Load Balancing" style="rounded=0;whiteSpace=wrap;html=1;" vertex="1" parent="1">
          <mxGeometry x="697" y="640" width="120" height="40" as="geometry" />
        </mxCell>
        <mxCell id="WEkyy8aIlfb2HkUplC9--38" value=" Synchronization-related Balancing" style="rounded=0;whiteSpace=wrap;html=1;" vertex="1" parent="1">
          <mxGeometry x="427" y="710" width="120" height="40" as="geometry" />
        </mxCell>
        <mxCell id="WEkyy8aIlfb2HkUplC9--39" value="Reduce Synchronization" style="rounded=0;whiteSpace=wrap;html=1;" vertex="1" parent="1">
          <mxGeometry x="567" y="690" width="120" height="40" as="geometry" />
        </mxCell>
        <mxCell id="WEkyy8aIlfb2HkUplC9--41" value="Reduce Atomics" style="rounded=0;whiteSpace=wrap;html=1;" vertex="1" parent="1">
          <mxGeometry x="567" y="740" width="120" height="40" as="geometry" />
        </mxCell>
        <mxCell id="WEkyy8aIlfb2HkUplC9--42" value="&amp;nbsp;Inter-Block Synchronization" style="rounded=0;whiteSpace=wrap;html=1;" vertex="1" parent="1">
          <mxGeometry x="697" y="690" width="120" height="40" as="geometry" />
        </mxCell>
        <mxCell id="WEkyy8aIlfb2HkUplC9--43" value="" style="shape=curlyBracket;whiteSpace=wrap;html=1;rounded=1;labelPosition=left;verticalLabelPosition=middle;align=right;verticalAlign=middle;" vertex="1" parent="1">
          <mxGeometry x="400" y="530" width="20" height="200" as="geometry" />
        </mxCell>
        <mxCell id="WEkyy8aIlfb2HkUplC9--44" value="Host Interaction" style="rounded=0;whiteSpace=wrap;html=1;" vertex="1" parent="1">
          <mxGeometry x="274" y="820" width="120" height="40" as="geometry" />
        </mxCell>
        <mxCell id="WEkyy8aIlfb2HkUplC9--45" value="Host Communication" style="rounded=0;whiteSpace=wrap;html=1;" vertex="1" parent="1">
          <mxGeometry x="426" y="784" width="120" height="40" as="geometry" />
        </mxCell>
        <mxCell id="WEkyy8aIlfb2HkUplC9--46" value="CPU/GPU Computation" style="rounded=0;whiteSpace=wrap;html=1;" vertex="1" parent="1">
          <mxGeometry x="425" y="840" width="120" height="40" as="geometry" />
        </mxCell>
        <mxCell id="WEkyy8aIlfb2HkUplC9--47" value="" style="shape=curlyBracket;whiteSpace=wrap;html=1;rounded=1;labelPosition=left;verticalLabelPosition=middle;align=right;verticalAlign=middle;" vertex="1" parent="1">
          <mxGeometry x="400" y="800" width="20" height="60" as="geometry" />
        </mxCell>
        <mxCell id="WEkyy8aIlfb2HkUplC9--48" value="" style="shape=curlyBracket;whiteSpace=wrap;html=1;rounded=1;labelPosition=left;verticalLabelPosition=middle;align=right;verticalAlign=middle;" vertex="1" parent="1">
          <mxGeometry x="254" y="173" width="20" height="677" as="geometry" />
        </mxCell>
      </root>
    </mxGraphModel>
  </diagram>
</mxfile>
